<svg width="22" height="22" viewBox="0 0 22 22" fill="none" xmlns="http://www.w3.org/2000/svg">
<g clip-path="url(#clip0_1_32)">
<path fill-rule="evenodd" clip-rule="evenodd" d="M21.7708 21.1292L20.4875 16.0875C21.3125 14.575 21.7708 12.8333 21.7708 11C21.7708 5.04167 16.9583 0.229166 11 0.229166C5.04167 0.229166 0.229168 5.04167 0.229168 11C0.229168 16.9583 5.04167 21.7708 11 21.7708C12.8333 21.7708 14.575 21.3125 16.0875 20.4875L21.1292 21.7708C21.4958 21.8625 21.8625 21.4958 21.7708 21.1292ZM20.3958 11C20.3958 12.8333 19.9375 14.2083 19.2042 15.5833C19.1125 15.7667 19.0667 15.9958 19.1125 16.225L20.075 20.075L16.2708 19.1125C16.0417 19.0667 15.8125 19.0667 15.6292 19.2042C14.8042 19.6625 13.2458 20.3958 11.0458 20.3958C5.82083 20.3958 1.60417 16.1792 1.60417 11C1.60417 5.82083 5.82083 1.60417 11 1.60417C16.1792 1.60417 20.3958 5.82083 20.3958 11Z" fill="#262626"/>
</g>
<defs>
<clipPath id="clip0_1_32">
<rect width="22" height="22" fill="white"/>
</clipPath>
</defs>
</svg>
