<svg width="22" height="22" viewBox="0 0 22 22" fill="none" xmlns="http://www.w3.org/2000/svg">
<g clip-path="url(#clip0_1_38)">
<path d="M11 22C4.95 22 0 17.05 0 11C0 4.95 4.95 0 11 0C17.05 0 22 4.95 22 11C22 17.05 17.05 22 11 22ZM11 1.375C5.68333 1.375 1.375 5.68333 1.375 11C1.375 16.3167 5.68333 20.625 11 20.625C16.3167 20.625 20.625 16.3167 20.625 11C20.625 5.68333 16.3167 1.375 11 1.375Z" fill="#262626"/>
<path d="M15.9958 11C15.9958 10.3583 15.4917 9.85417 14.85 9.85417C14.2083 9.85417 13.7042 10.3583 13.7042 11C13.7042 11.6417 14.2083 12.1458 14.85 12.1458C15.4917 12.1458 15.9958 11.6417 15.9958 11ZM6.00416 11C6.00416 10.3583 6.50833 9.85417 7.15 9.85417C7.79166 9.85417 8.29583 10.3583 8.29583 11C8.29583 11.6417 7.79166 12.1458 7.15 12.1458C6.50833 12.1458 6.00416 11.6417 6.00416 11ZM11 17.0958C8.61666 17.0958 7.33333 15.4917 7.24166 15.4C7.0125 15.125 7.05833 14.6667 7.33333 14.4375C7.60833 14.2083 8.06666 14.2542 8.29583 14.5292C8.34166 14.575 9.25833 15.675 10.9542 15.675C12.65 15.675 13.6125 14.5292 13.6125 14.5292C13.8417 14.2542 14.3 14.2083 14.575 14.4375C14.85 14.6667 14.8958 15.125 14.6667 15.4C14.6667 15.4917 13.3833 17.0958 11 17.0958V17.0958Z" fill="#262626"/>
</g>
<defs>
<clipPath id="clip0_1_38">
<rect width="22" height="22" fill="white"/>
</clipPath>
</defs>
</svg>
