<svg width="22" height="22" viewBox="0 0 22 22" fill="none" xmlns="http://www.w3.org/2000/svg">
<g clip-path="url(#clip0_1_67)">
<path d="M11 22H10.8625L0.55 19.7083C0.229167 19.6166 0 19.3416 0 19.0208V0.687483C0 0.458317 0.0916667 0.274983 0.275 0.137483C0.458333 -1.6787e-05 0.641667 -0.0458501 0.825 -1.67836e-05L11.1375 2.29165C11.4583 2.38332 11.6875 2.65832 11.6875 2.97915V21.3125C11.6875 21.5416 11.5958 21.725 11.4125 21.8625C11.3208 21.9542 11.1375 22 11 22ZM1.375 18.4708L10.3125 20.4416V3.52915L1.375 1.55832V18.4708Z" fill="#262626"/>
<path d="M11 22C10.8625 22 10.6792 21.9542 10.5875 21.8625C10.4042 21.725 10.3125 21.5416 10.3125 21.3125V2.97915C10.3125 2.65832 10.5417 2.38332 10.8625 2.29165L21.175 -1.67836e-05C21.3583 -0.0458501 21.5875 -1.6787e-05 21.7708 0.137483C21.9083 0.274983 22 0.458317 22 0.687483V19.0208C22 19.3416 21.7708 19.6166 21.45 19.7083L11.1375 22H11ZM11.6875 3.52915V20.4416L20.625 18.4708V1.55832L11.6875 3.52915V3.52915Z" fill="#262626"/>
<path d="M13.9792 17.7834C13.6583 17.7834 13.3833 17.5542 13.2917 17.2334C13.2 16.8667 13.4292 16.5 13.7958 16.4084L18.15 15.4459C18.5167 15.3542 18.8833 15.5834 18.975 15.95C19.0667 16.3167 18.8375 16.6834 18.4708 16.775L14.1167 17.7375C14.0708 17.7834 14.025 17.7834 13.9792 17.7834V17.7834ZM8.02083 17.7834H7.88333L3.52917 16.8209C3.1625 16.7292 2.93333 16.3625 3.025 15.9959C3.11667 15.6292 3.48333 15.4 3.85 15.4917L8.20417 16.4542C8.57083 16.5459 8.8 16.9125 8.70833 17.2792C8.61667 17.5542 8.34167 17.7834 8.02083 17.7834ZM8.02083 11.3667H7.88333L3.52917 10.4042C3.20833 10.3125 2.97917 10.0375 2.97917 9.71669V4.90419C2.97917 4.67502 3.07083 4.49169 3.25417 4.35419C3.4375 4.21669 3.62083 4.17086 3.85 4.21669L8.20417 5.17919C8.525 5.27086 8.75417 5.54586 8.75417 5.86669V10.6792C8.75417 10.9084 8.6625 11.0917 8.47917 11.2292C8.34167 11.3209 8.15833 11.3667 8.02083 11.3667V11.3667ZM4.35417 9.16669L7.33333 9.80836V6.41669L4.35417 5.77502V9.16669V9.16669ZM13.9792 11.3667C13.8417 11.3667 13.6583 11.3209 13.5667 11.2292C13.3833 11.0917 13.2917 10.9084 13.2917 10.6792V5.86669C13.2917 5.54586 13.5208 5.27086 13.8417 5.17919L18.1958 4.21669C18.3792 4.17086 18.6083 4.21669 18.7917 4.35419C18.975 4.49169 19.0667 4.67502 19.0667 4.90419V9.71669C19.0667 10.0375 18.8375 10.3125 18.5167 10.4042L14.1625 11.3667H13.9792V11.3667ZM14.6667 6.41669V9.80836L17.6458 9.16669V5.77502L14.6667 6.41669ZM13.9792 15.0334C13.6583 15.0334 13.3833 14.8042 13.2917 14.4834C13.2 14.1167 13.4292 13.75 13.7958 13.6584L18.15 12.6959C18.5167 12.6042 18.8833 12.8334 18.975 13.2C19.0667 13.5667 18.8375 13.9334 18.4708 14.025L14.1167 14.9875C14.0708 15.0334 14.025 15.0334 13.9792 15.0334V15.0334Z" fill="#262626"/>
</g>
<defs>
<clipPath id="clip0_1_67">
<rect width="22" height="22" fill="white"/>
</clipPath>
</defs>
</svg>
