<svg width="22" height="22" viewBox="0 0 22 22" fill="none" xmlns="http://www.w3.org/2000/svg">
<g clip-path="url(#clip0_1_10)">
<path d="M16.5917 7.65417L13.2917 10.175C13.0625 10.3583 12.7417 10.3583 12.5125 10.175L10.0375 8.34167C9.30417 7.79167 8.25 7.975 7.74583 8.75417L4.62917 13.6583C4.30833 14.1167 4.90417 14.6667 5.3625 14.3458L8.70833 11.825C8.9375 11.6417 9.25833 11.6417 9.4875 11.825L11.9625 13.6583C12.6958 14.2083 13.75 14.025 14.2542 13.2458L17.3708 8.34167C17.6458 7.8375 17.05 7.33333 16.5917 7.65417V7.65417ZM11 0.458332C5.04167 0.458332 0.458333 4.8125 0.458333 10.6792C0.458333 13.75 1.69583 16.4083 3.75833 18.2417C3.94167 18.3792 4.03333 18.6083 4.03333 18.8375L4.125 20.7167C4.125 21.175 4.5375 21.5417 4.95 21.5417C5.04167 21.5417 5.17917 21.5417 5.27083 21.45L7.37917 20.5333C7.47083 20.4875 7.60833 20.4417 7.7 20.4417C7.79167 20.4417 7.8375 20.4417 7.92917 20.4875C8.89167 20.7625 9.9 20.9 11 20.9C16.9583 20.9 21.5417 16.5458 21.5417 10.6792C21.5417 4.8125 16.9583 0.458332 11 0.458332ZM11 19.525C10.0833 19.525 9.16667 19.3875 8.29583 19.1583C8.1125 19.1125 7.92917 19.0667 7.7 19.0667C7.37917 19.0667 7.10417 19.1125 6.78333 19.25L5.40833 19.8458V18.7917C5.40833 18.1958 5.13333 17.6458 4.675 17.2333C2.84167 15.5833 1.83333 13.2458 1.83333 10.6792C1.83333 5.6375 5.775 1.83333 11 1.83333C16.225 1.83333 20.1667 5.6375 20.1667 10.6792C20.1667 15.7208 16.225 19.525 11 19.525Z" fill="#262626"/>
</g>
<defs>
<clipPath id="clip0_1_10">
<rect width="22" height="22" fill="white"/>
</clipPath>
</defs>
</svg>
