<svg width="22" height="22" viewBox="0 0 22 22" fill="none" xmlns="http://www.w3.org/2000/svg">
<g clip-path="url(#clip0_1_20)">
<path fill-rule="evenodd" clip-rule="evenodd" d="M4.675 13.6583C4.35417 14.1167 4.95 14.6667 5.40833 14.3458L8.75417 11.825C8.98333 11.6417 9.30417 11.6417 9.53333 11.825L12.0083 13.6583C12.7417 14.2083 13.7958 14.025 14.3 13.2458L17.4167 8.34167C17.7375 7.88333 17.1417 7.33333 16.6833 7.65417L13.2917 10.175C13.0625 10.3583 12.7417 10.3583 12.5125 10.175L10.0375 8.34167C9.30417 7.79167 8.25 7.975 7.74583 8.75417L4.675 13.6583V13.6583ZM11 0.458332C16.9583 0.458332 21.5417 4.8125 21.5417 10.6792C21.5417 16.5458 16.9583 20.9 11 20.9C9.94583 20.9 8.89167 20.7625 7.92917 20.4875C7.74583 20.4417 7.5625 20.4417 7.37917 20.5333L5.27083 21.45C4.76667 21.725 4.125 21.3125 4.125 20.7167L4.07917 18.8375C4.07917 18.6083 3.9875 18.3792 3.80417 18.2417C1.69583 16.4083 0.458334 13.75 0.458334 10.6792C0.458334 4.8125 5.04167 0.458332 11 0.458332Z" fill="#262626"/>
</g>
<defs>
<clipPath id="clip0_1_20">
<rect width="22" height="22" fill="white"/>
</clipPath>
</defs>
</svg>
