<svg width="22" height="22" viewBox="0 0 22 22" fill="none" xmlns="http://www.w3.org/2000/svg">
<path d="M11 12.375C11.7594 12.375 12.375 11.7594 12.375 11C12.375 10.2406 11.7594 9.625 11 9.625C10.2406 9.625 9.625 10.2406 9.625 11C9.625 11.7594 10.2406 12.375 11 12.375Z" fill="#262626"/>
<path d="M5.95833 12.375C6.71772 12.375 7.33333 11.7594 7.33333 11C7.33333 10.2406 6.71772 9.625 5.95833 9.625C5.19894 9.625 4.58333 10.2406 4.58333 11C4.58333 11.7594 5.19894 12.375 5.95833 12.375Z" fill="#262626"/>
<path d="M16.0417 12.375C16.8011 12.375 17.4167 11.7594 17.4167 11C17.4167 10.2406 16.8011 9.625 16.0417 9.625C15.2823 9.625 14.6667 10.2406 14.6667 11C14.6667 11.7594 15.2823 12.375 16.0417 12.375Z" fill="#262626"/>
</svg>
