<svg width="22" height="22" viewBox="0 0 22 22" fill="none" xmlns="http://www.w3.org/2000/svg">
<g clip-path="url(#clip0_1_49)">
<path d="M16.85 22.06H4.24998C3.69019 22.066 3.13483 21.9602 2.61647 21.7488C2.09812 21.5373 1.6272 21.2245 1.23135 20.8286C0.835494 20.4328 0.522668 19.9619 0.311219 19.4435C0.0997692 18.9251 -0.00604699 18.3698 -2.3605e-05 17.81V5.21C-0.00604699 4.65021 0.0997692 4.09485 0.311219 3.57649C0.522668 3.05814 0.835494 2.58723 1.23135 2.19137C1.6272 1.79552 2.09812 1.48269 2.61647 1.27124C3.13483 1.05979 3.69019 0.953975 4.24998 0.959998H11.5C11.6989 0.959998 11.8897 1.03902 12.0303 1.17967C12.171 1.32032 12.25 1.51109 12.25 1.71C12.25 1.90891 12.171 2.09968 12.0303 2.24033C11.8897 2.38098 11.6989 2.46 11.5 2.46H4.24998C3.88791 2.45666 3.52881 2.52551 3.19366 2.66253C2.85851 2.79955 2.55402 3.00199 2.29799 3.25802C2.04197 3.51405 1.83953 3.81853 1.70251 4.15368C1.56549 4.48884 1.49664 4.84793 1.49998 5.21V17.81C1.49664 18.1721 1.56549 18.5312 1.70251 18.8663C1.83953 19.2015 2.04197 19.506 2.29799 19.762C2.55402 20.018 2.85851 20.2204 3.19366 20.3575C3.52881 20.4945 3.88791 20.5633 4.24998 20.56H16.85C17.212 20.5633 17.5711 20.4945 17.9063 20.3575C18.2414 20.2204 18.5459 20.018 18.802 19.762C19.058 19.506 19.2604 19.2015 19.3974 18.8663C19.5345 18.5312 19.6033 18.1721 19.6 17.81V10.56C19.6 10.3611 19.679 10.1703 19.8196 10.0297C19.9603 9.88902 20.1511 9.81 20.35 9.81C20.5489 9.81 20.7397 9.88902 20.8803 10.0297C21.021 10.1703 21.1 10.3611 21.1 10.56V17.81C21.106 18.3698 21.0002 18.9251 20.7887 19.4435C20.5773 19.9619 20.2645 20.4328 19.8686 20.8286C19.4728 21.2245 19.0018 21.5373 18.4835 21.7488C17.9651 21.9602 17.4098 22.066 16.85 22.06V22.06Z" fill="#262626"/>
<path d="M8.75 17.4097H5.4C5.20109 17.4097 5.01032 17.3307 4.86967 17.19C4.72902 17.0494 4.65 16.8586 4.65 16.6597V13.3097C4.65017 13.1108 4.72931 12.9202 4.87 12.7797L17.05 0.629675C17.4657 0.223496 18.0238 -0.00391006 18.605 -0.00391006C19.1862 -0.00391006 19.7443 0.223496 20.16 0.629675L21.41 1.87968C21.8162 2.29537 22.0436 2.85349 22.0436 3.43468C22.0436 4.01586 21.8162 4.57398 21.41 4.98968L9.26 17.1897C9.12442 17.3256 8.94189 17.4043 8.75 17.4097V17.4097ZM6.15 15.9097H8.44L20.37 3.90968C20.4984 3.77487 20.57 3.59584 20.57 3.40968C20.57 3.22351 20.4984 3.04448 20.37 2.90968L19.12 1.65968C18.9852 1.53129 18.8062 1.45968 18.62 1.45968C18.4338 1.45968 18.2548 1.53129 18.12 1.65968L6.12 13.5897L6.15 15.9097Z" fill="#262626"/>
<path d="M19.1 7.01C18.9982 7.0123 18.897 6.994 18.8025 6.95619C18.708 6.91838 18.6221 6.86185 18.55 6.79L15.27 3.51C15.1375 3.36782 15.0654 3.17978 15.0688 2.98548C15.0723 2.79117 15.151 2.60579 15.2884 2.46838C15.4258 2.33096 15.6112 2.25225 15.8055 2.24882C15.9998 2.2454 16.1878 2.31752 16.33 2.45L19.63 5.75C19.7001 5.81929 19.7558 5.90182 19.7939 5.9928C19.8319 6.08378 19.8514 6.1814 19.8514 6.28C19.8514 6.3786 19.8319 6.47622 19.7939 6.5672C19.7558 6.65818 19.7001 6.7407 19.63 6.81C19.486 6.94293 19.2959 7.01465 19.1 7.01V7.01Z" fill="#262626"/>
</g>
<defs>
<clipPath id="clip0_1_49">
<rect width="22" height="22" fill="white"/>
</clipPath>
</defs>
</svg>
