<svg width="22" height="22" viewBox="0 0 22 22" fill="none" xmlns="http://www.w3.org/2000/svg">
<g clip-path="url(#clip0_1_47)">
<path fill-rule="evenodd" clip-rule="evenodd" d="M21.4042 9.44167L20.4417 8.9375C20.2583 8.84583 20.1208 8.70833 20.075 8.47917C19.8458 7.74583 19.5708 7.0125 19.2042 6.325C19.1125 6.14167 19.0667 5.95833 19.1583 5.775L19.525 4.72083C19.6167 4.49167 19.525 4.21667 19.3417 4.03333L18.0125 2.70417C17.8292 2.52083 17.5542 2.475 17.325 2.52083L16.2708 2.8875C16.0875 2.93333 15.9042 2.93333 15.7208 2.84167C15.0792 2.475 14.3458 2.15417 13.6125 1.97083C13.4292 1.925 13.2458 1.7875 13.1542 1.60417L12.65 0.595835C12.5125 0.366668 12.2833 0.229168 12.0542 0.229168H10.175C9.9 0.229168 9.67083 0.366668 9.57916 0.595835L9.075 1.60417C8.98333 1.7875 8.84583 1.925 8.61666 1.97083C7.88333 2.2 7.15 2.475 6.50833 2.84167C6.325 2.93333 6.14166 2.97917 5.95833 2.8875L4.90416 2.52083C4.675 2.42917 4.4 2.52083 4.21666 2.70417L2.70416 4.03333C2.52083 4.21667 2.475 4.49167 2.52083 4.72083L2.8875 5.775C2.93333 5.95833 2.93333 6.14167 2.84166 6.325C2.475 7.0125 2.15416 7.7 1.97083 8.47917C1.925 8.6625 1.7875 8.84583 1.60416 8.9375L0.641662 9.44167C0.412496 9.57917 0.274996 9.80833 0.274996 10.0375V11.9167C0.274996 12.1917 0.412496 12.4208 0.641662 12.5125L1.60416 13.0167C1.7875 13.1083 1.925 13.2458 1.97083 13.475C2.2 14.2083 2.475 14.9417 2.84166 15.6292C2.93333 15.8125 2.97916 15.9958 2.8875 16.1792L2.52083 17.2333C2.42916 17.4625 2.52083 17.7375 2.70416 17.9208L4.03333 19.25C4.21666 19.4333 4.49166 19.4792 4.72083 19.4333L5.775 19.0667C5.95833 19.0208 6.14166 19.0208 6.325 19.1125C6.96666 19.4792 7.7 19.8 8.43333 19.9833C8.61666 20.0292 8.8 20.1667 8.89166 20.35L9.39583 21.3583C9.53333 21.5875 9.7625 21.725 9.99166 21.725H11.8708C12.1458 21.725 12.375 21.5875 12.4667 21.3583L12.9708 20.35C13.0625 20.1667 13.2 20.0292 13.4292 19.9833C14.1625 19.7542 14.8958 19.4792 15.5375 19.1125C15.7208 19.0208 15.9042 18.975 16.0875 19.0667L17.1417 19.4333C17.3708 19.525 17.6458 19.4333 17.8292 19.25L19.1583 17.9208C19.3417 17.7375 19.3875 17.4625 19.3417 17.2333L18.975 16.1792C18.9292 15.9958 18.9292 15.8125 19.0208 15.6292C19.3875 14.9417 19.7083 14.2542 19.8917 13.475C19.9375 13.2917 20.075 13.1083 20.2583 13.0167L21.2208 12.5125C21.45 12.375 21.5875 12.1458 21.5875 11.9167V10.0375C21.7708 9.80833 21.6333 9.53333 21.4042 9.44167V9.44167ZM11 19.0208C6.55416 19.0208 2.97916 15.4458 2.97916 11C2.97916 6.55417 6.55416 2.97917 11 2.97917C15.4458 2.97917 19.0208 6.55417 19.0208 11C19.0208 15.4458 15.4458 19.0208 11 19.0208Z" fill="#262626"/>
</g>
<defs>
<clipPath id="clip0_1_47">
<rect width="22" height="22" fill="white"/>
</clipPath>
</defs>
</svg>
