<svg width="22" height="22" viewBox="0 0 22 22" fill="none" xmlns="http://www.w3.org/2000/svg">
<path d="M9.16667 16.5C10.7937 16.4997 12.3739 15.955 13.6556 14.9527L17.6853 18.9823L18.9814 17.6862L14.9518 13.6565C15.9546 12.3747 16.4996 10.7942 16.5 9.16667C16.5 5.12325 13.2101 1.83334 9.16667 1.83334C5.12325 1.83334 1.83333 5.12325 1.83333 9.16667C1.83333 13.2101 5.12325 16.5 9.16667 16.5ZM9.16667 3.66667C12.1999 3.66667 14.6667 6.13342 14.6667 9.16667C14.6667 12.1999 12.1999 14.6667 9.16667 14.6667C6.13342 14.6667 3.66667 12.1999 3.66667 9.16667C3.66667 6.13342 6.13342 3.66667 9.16667 3.66667Z" fill="#262626"/>
</svg>
