<svg width="22" height="22" viewBox="0 0 22 22" fill="none" xmlns="http://www.w3.org/2000/svg">
<g clip-path="url(#clip0_1_45)">
<path d="M19.0208 2.52084H13.9333C13.7042 2.52084 13.475 2.42917 13.2917 2.24584L11.4583 0.412503C11.1833 0.137503 10.7708 0.137503 10.4958 0.412503L8.6625 2.24584C8.47917 2.42917 8.25 2.52084 8.02083 2.52084H2.97917C1.46667 2.52084 0.229167 3.75834 0.229167 5.27084V19.0208C0.229167 20.5333 1.46667 21.7708 2.97917 21.7708H19.0208C20.5333 21.7708 21.7708 20.5333 21.7708 19.0208V5.27084C21.7708 3.75834 20.5333 2.52084 19.0208 2.52084ZM5.54583 20.3958C5.27083 20.3958 5.04167 20.1208 5.0875 19.8458C5.40833 18.3792 6.69167 17.2792 8.20417 17.2792H13.7042C15.2625 17.2792 16.5458 18.3792 16.8208 19.8458C16.8667 20.1208 16.6375 20.3958 16.3625 20.3958H5.54583V20.3958ZM20.3958 19.0208C20.3958 19.8 19.8 20.3958 19.0208 20.3958H18.7458C18.5167 20.3958 18.3333 20.2125 18.2875 19.9833C18.0125 17.6917 16.0875 15.9042 13.75 15.9042H8.25C5.9125 15.9042 3.94167 17.6917 3.7125 19.9833C3.66667 20.2125 3.48333 20.3958 3.25417 20.3958H2.97917C2.2 20.3958 1.60417 19.8 1.60417 19.0208V5.27084C1.60417 4.49167 2.2 3.89584 2.97917 3.89584H8.06667C8.6625 3.89584 9.25833 3.66667 9.67083 3.20834L11 1.87917L12.3292 3.20834C12.7417 3.62084 13.3375 3.89584 13.9333 3.89584H19.0208C19.8 3.89584 20.3958 4.49167 20.3958 5.27084V19.0208ZM11 5.72917C8.57083 5.72917 6.6 7.7 6.6 10.1292C6.6 12.5583 8.57083 14.5292 11 14.5292C13.4292 14.5292 15.4 12.5583 15.4 10.1292C15.4 7.7 13.4292 5.72917 11 5.72917V5.72917ZM11 13.1083C9.35 13.1083 7.975 11.7792 7.975 10.0833C7.975 8.43334 9.30417 7.05834 11 7.05834C12.6958 7.05834 14.025 8.3875 14.025 10.0833C14.025 11.7333 12.65 13.1083 11 13.1083Z" fill="#262626"/>
</g>
<defs>
<clipPath id="clip0_1_45">
<rect width="22" height="22" fill="white"/>
</clipPath>
</defs>
</svg>
