<svg width="148" height="46" viewBox="0 0 148 46" fill="none" xmlns="http://www.w3.org/2000/svg">
<path d="M8.15625 45H0.5V0.1875H8.15625V45ZM41.9525 43.5312C39.39 45.0104 36.3587 45.75 32.8587 45.75C28.1087 45.75 24.2754 44.2708 21.3587 41.3125C18.4421 38.3333 16.9837 34.4792 16.9837 29.75C16.9837 24.4792 18.5462 20.25 21.6712 17.0625C24.8171 13.8542 29.015 12.25 34.265 12.25C37.1817 12.25 39.7546 12.7604 41.9837 13.7812V20.5312C39.7546 18.8646 37.3796 18.0312 34.8587 18.0312C31.7962 18.0312 29.2858 19.0729 27.3275 21.1562C25.3692 23.2188 24.39 25.9271 24.39 29.2812C24.39 32.5938 25.3067 35.2083 27.14 37.125C28.9942 39.0417 31.4733 40 34.5775 40C37.1817 40 39.64 39.0729 41.9525 37.2188V43.5312ZM63.9987 45.75C59.0612 45.75 55.1133 44.2604 52.155 41.2812C49.2175 38.2812 47.7487 34.3125 47.7487 29.375C47.7487 24 49.28 19.8021 52.3425 16.7812C55.4258 13.7604 59.5717 12.25 64.78 12.25C69.78 12.25 73.6758 13.7188 76.4675 16.6562C79.2592 19.5938 80.655 23.6667 80.655 28.875C80.655 33.9792 79.1446 38.0729 76.1237 41.1562C73.1237 44.2188 69.0821 45.75 63.9987 45.75ZM64.3425 18.0312C61.5092 18.0312 59.2696 19.0208 57.6237 21C55.9779 22.9792 55.155 25.7083 55.155 29.1875C55.155 32.5417 55.9883 35.1875 57.655 37.125C59.3217 39.0417 61.5508 40 64.3425 40C67.1967 40 69.3842 39.0521 70.905 37.1562C72.4467 35.2604 73.2175 32.5625 73.2175 29.0625C73.2175 25.5417 72.4467 22.8229 70.905 20.9062C69.3842 18.9896 67.1967 18.0312 64.3425 18.0312ZM117.201 45H109.951V26.9688C109.951 20.9896 107.837 18 103.607 18C101.399 18 99.5762 18.8333 98.1387 20.5C96.7012 22.1458 95.9825 24.2292 95.9825 26.75V45H88.7012V13H95.9825V18.3125H96.1075C98.5033 14.2708 101.962 12.25 106.482 12.25C109.962 12.25 112.618 13.3854 114.451 15.6562C116.285 17.9062 117.201 21.1667 117.201 25.4375V45ZM124.716 44V37.2812C127.425 39.3438 130.414 40.375 133.685 40.375C138.06 40.375 140.247 39.0833 140.247 36.5C140.247 35.7708 140.06 35.1562 139.685 34.6562C139.31 34.1354 138.8 33.6771 138.154 33.2812C137.529 32.8854 136.779 32.5312 135.904 32.2188C135.05 31.9062 134.091 31.5521 133.029 31.1562C131.716 30.6354 130.529 30.0833 129.466 29.5C128.425 28.9167 127.55 28.2604 126.841 27.5312C126.154 26.7812 125.633 25.9375 125.279 25C124.925 24.0625 124.747 22.9688 124.747 21.7188C124.747 20.1771 125.112 18.8229 125.841 17.6562C126.57 16.4688 127.55 15.4792 128.779 14.6875C130.008 13.875 131.404 13.2708 132.966 12.875C134.529 12.4583 136.143 12.25 137.81 12.25C140.768 12.25 143.414 12.6979 145.747 13.5938V19.9375C143.497 18.3958 140.914 17.625 137.997 17.625C137.081 17.625 136.247 17.7188 135.497 17.9062C134.768 18.0938 134.143 18.3542 133.622 18.6875C133.102 19.0208 132.695 19.4271 132.404 19.9062C132.112 20.3646 131.966 20.875 131.966 21.4375C131.966 22.125 132.112 22.7083 132.404 23.1875C132.695 23.6667 133.122 24.0938 133.685 24.4688C134.268 24.8229 134.956 25.1562 135.747 25.4688C136.56 25.7604 137.487 26.0833 138.529 26.4375C139.904 27 141.133 27.5729 142.216 28.1562C143.32 28.7396 144.258 29.4062 145.029 30.1562C145.8 30.8854 146.393 31.7396 146.81 32.7188C147.227 33.6771 147.435 34.8229 147.435 36.1562C147.435 37.7812 147.06 39.1979 146.31 40.4062C145.56 41.6146 144.56 42.6146 143.31 43.4062C142.06 44.1979 140.612 44.7812 138.966 45.1562C137.341 45.5521 135.622 45.75 133.81 45.75C130.31 45.75 127.279 45.1667 124.716 44Z" fill="white"/>
</svg>
